<?xml version="1.0" encoding="UTF-8" standalone="no"?>
<svg
   viewBox="0 0 24 24"
   width="384px"
   height="384px"
   version="1.1"
   id="svg1131"
   sodipodi:docname="Minus gold.svg"
   inkscape:version="1.1.2 (0a00cf5339, 2022-02-04, custom)"
   xmlns:inkscape="http://www.inkscape.org/namespaces/inkscape"
   xmlns:sodipodi="http://sodipodi.sourceforge.net/DTD/sodipodi-0.dtd"
   xmlns="http://www.w3.org/2000/svg"
   xmlns:svg="http://www.w3.org/2000/svg">
  <defs
     id="defs1135" />
  <sodipodi:namedview
     id="namedview1133"
     pagecolor="#505050"
     bordercolor="#eeeeee"
     borderopacity="1"
     inkscape:pageshadow="0"
     inkscape:pageopacity="0"
     inkscape:pagecheckerboard="0"
     showgrid="false"
     inkscape:zoom="0.35355339"
     inkscape:cx="90.509668"
     inkscape:cy="-227.68838"
     inkscape:window-width="1920"
     inkscape:window-height="1018"
     inkscape:window-x="-6"
     inkscape:window-y="-6"
     inkscape:window-maximized="1"
     inkscape:current-layer="svg1131" />
  <path
     id="path1129"
     style="fill:#ffc356;fill-opacity:1;stroke-width:16"
     transform="scale(0.0625)"
     d="m 192,32 c -88.17605,0 -160,71.82395 -160,160 0,88.17605 71.82395,160 160,160 88.17605,0 160,-71.82395 160,-160 C 352,103.82395 280.17605,32 192,32 Z m 0,32 c 70.88197,0 128,57.11804 128,128 0,70.88197 -57.11803,128 -128,128 C 121.11804,320 64,262.88197 64,192 64,121.11804 121.11804,64 192,64 Z m 6.31836,110.56641 c -0.0252,0.004 -0.06,0.009 -0.0996,0.0137 0.0334,-0.004 0.0664,-0.008 0.0996,-0.0137 z m 8.83789,1.39062 c -7.336,-0.0232 -14.66869,0.44787 -22.00391,0.4668 h -8.55273 c -0.75576,0 -1.34797,-0.16521 -1.77734,-0.42383 H 112 v 32 h 58.13672 c 0.5477,-0.0511 1.09248,-0.10581 1.6914,-0.10938 2.62634,-0.0155 5.24901,-0.0317 7.8711,-0.041 0.15384,-0.12637 0.36178,-0.22461 0.68555,-0.22461 h 5.23437 1.25586 2.35547 c 0.0506,0 0.10168,-0.003 0.15234,-0.004 0.0507,-0.001 0.10195,-0.002 0.15235,0.004 0.13776,0.016 0.2722,0.0529 0.4082,0.0801 0.12236,0.0255 0.20975,0.0461 0.27148,0.0625 0.18744,-0.0193 0.10389,-0.0118 0.36133,-0.0234 0.0448,-1.8e-4 0.0903,-0.002 0.13672,-0.002 0.28677,-0.001 0.50631,0.0665 0.66016,0.16992 0.0257,-9.4e-4 0.0377,-0.0137 0.0644,-0.0137 h 5.04297 c 0.34613,0 0.69098,-0.0105 1.03711,-0.0117 0.20768,-7e-4 0.41552,0.003 0.62304,0.0117 0.41024,0.0176 0.82272,0.0514 1.22657,0.125 0.13343,0.0246 0.29025,0.0411 0.42383,0.084 0.32814,-2.4e-4 0.6563,0.002 0.98437,0 0.3648,-10e-4 0.73154,-0.0119 1.0957,0.0137 0.0169,0 0.0147,-5e-5 0.0195,0 -0.0176,-0.003 -0.0267,-0.0127 0.13477,-0.0352 0.0949,-0.0128 0.19111,-0.0171 0.28711,-0.0195 0.42352,-0.0114 0.8478,0.0155 1.27148,0.006 0.12448,-0.002 0.24826,-0.002 0.37305,-0.006 0.15233,-0.005 0.30503,-0.0296 0.45703,-0.0254 0.35088,-0.01 0.7015,-0.017 1.05078,-0.0586 0.20464,-0.0144 0.41044,-0.0289 0.61524,-0.0391 0.16832,-0.008 0.19439,0.0109 0.36719,-0.006 0.10352,-0.01 0.2053,-0.0606 0.3125,-0.0469 0.2328,-0.005 0.46609,-0.0131 0.69921,-0.0137 0.23312,-6e-4 0.46527,0.007 0.69727,0.0352 0.1001,0.012 0.17419,0.0452 0.22461,0.0879 h 63.65039 v -32 h -60.8418 c 0.002,0.009 0.004,0.0169 0.006,0.0254 -0.14671,-0.005 -0.29274,-0.009 -0.43945,-0.0137 -0.003,0.0176 -0.005,0.0352 -0.008,0.0527 -0.17498,1.11988 -0.33477,0.78421 -0.44727,-0.0644 h -2.26953 v -0.0312 c -0.29163,-0.003 -0.58338,-0.0108 -0.875,-0.0117 z" />
</svg>
