<?xml version="1.0" encoding="UTF-8" standalone="no"?>
<svg
   viewBox="0 0 16 16"
   id="Star"
   version="1.1"
   sodipodi:docname="StarEmpty.svg"
   inkscape:version="1.1.2 (0a00cf5339, 2022-02-04, custom)"
   xmlns:inkscape="http://www.inkscape.org/namespaces/inkscape"
   xmlns:sodipodi="http://sodipodi.sourceforge.net/DTD/sodipodi-0.dtd"
   xmlns="http://www.w3.org/2000/svg"
   xmlns:svg="http://www.w3.org/2000/svg">
  <defs
     id="defs836" />
  <sodipodi:namedview
     id="namedview834"
     pagecolor="#505050"
     bordercolor="#eeeeee"
     borderopacity="1"
     inkscape:pageshadow="0"
     inkscape:pageopacity="0"
     inkscape:pagecheckerboard="0"
     showgrid="false"
     inkscape:zoom="50.5625"
     inkscape:cx="7.9901112"
     inkscape:cy="8"
     inkscape:window-width="1920"
     inkscape:window-height="1018"
     inkscape:window-x="-6"
     inkscape:window-y="-6"
     inkscape:window-maximized="1"
     inkscape:current-layer="Star" />
  <path
     fill="#f0ee06"
     d="M 5.7576652,5.4137765 7.5516319,1.7787233 c 0.1834068,-0.3716311 0.7133292,-0.3716311 0.896736,0 l 1.7939671,3.6350532 4.011431,0.582908 c 0.410111,0.059594 0.573866,0.563591 0.277107,0.8528653 l -2.902699,2.8294944 0.685234,3.9953098 c 0.07005,0.408462 -0.358661,0.71995 -0.725474,0.5271 L 7.9999999,12.315125 4.4120664,14.201454 c -0.3668137,0.19285 -0.7955299,-0.118638 -0.7254747,-0.5271 L 4.371826,9.6790442 1.4691268,6.8495498 C 1.1723683,6.5602755 1.3361233,6.0562783 1.7462335,5.9966845 Z M 6.5380659,6.0920782 C 6.4652349,6.2396532 6.3244522,6.34194 6.1615971,6.3656047 l -3.2689839,0.4750216 2.365459,2.305803 c 0.117843,0.1148713 0.1716172,0.2803749 0.1437983,0.4425755 L 4.8434614,12.844851 7.7673293,11.307649 c 0.145662,-0.07658 0.3196792,-0.07658 0.4653412,0 L 11.156539,12.844851 10.59813,9.5890048 C 10.57031,9.4268049 10.62408,9.2613004 10.741928,9.1464293 L 13.107387,6.8406263 9.8384028,6.3656047 C 9.6755477,6.34194 9.5347649,6.2396532 9.4619339,6.0920782 L 7.9999999,3.1298115 Z"
     class="color212121 svgShape"
     id="path831"
     style="fill:#ffc356;fill-opacity:1;stroke-width:1.00001" />
</svg>
